<?xml version="1.0" encoding="UTF-8" standalone="no"?>
<!-- Created with Inkscape (http://www.inkscape.org/) -->

<svg
   xmlns:dc="http://purl.org/dc/elements/1.1/"
   xmlns:cc="http://creativecommons.org/ns#"
   xmlns:rdf="http://www.w3.org/1999/02/22-rdf-syntax-ns#"
   xmlns:svg="http://www.w3.org/2000/svg"
   xmlns="http://www.w3.org/2000/svg"
   xmlns:sodipodi="http://sodipodi.sourceforge.net/DTD/sodipodi-0.dtd"
   xmlns:inkscape="http://www.inkscape.org/namespaces/inkscape"
   width="8.5in"
   height="11in"
   viewBox="0 0 765 990"
   id="svg2"
   version="1.1"
   inkscape:version="0.92.1 r15371"
   sodipodi:docname="juggler.svg">
  <defs
     id="defs4">
    <style
       id="style4493"
       type="text/css">
    .fil0 {fill:black}
  </style>
    <style
       id="style4511"
       type="text/css">
    .fil0 {fill:black}
  </style>
  </defs>
  <sodipodi:namedview
     id="base"
     pagecolor="#ffffff"
     bordercolor="#666666"
     borderopacity="1.0"
     inkscape:pageopacity="0.0"
     inkscape:pageshadow="2"
     inkscape:zoom="0.49497475"
     inkscape:cx="376.28571"
     inkscape:cy="667.75922"
     inkscape:document-units="in"
     inkscape:current-layer="layer1"
     showgrid="false"
     units="in"
     inkscape:window-width="1492"
     inkscape:window-height="905"
     inkscape:window-x="2256"
     inkscape:window-y="29"
     inkscape:window-maximized="0" />
  <metadata
     id="metadata7">
    <rdf:RDF>
      <cc:Work
         rdf:about="">
        <dc:format>image/svg+xml</dc:format>
        <dc:type
           rdf:resource="http://purl.org/dc/dcmitype/StillImage" />
        <dc:title />
      </cc:Work>
    </rdf:RDF>
  </metadata>
  <g
     inkscape:label="Layer 1"
     inkscape:groupmode="layer"
     id="layer1"
     transform="translate(0,-62.362205)">
    <g
       style="clip-rule:evenodd;fill-rule:evenodd;image-rendering:optimizeQuality;shape-rendering:geometricPrecision;text-rendering:geometricPrecision"
       id="g4509"
       transform="matrix(0.9375,0,0,0.9375,-811.99904,-239.4575)">
      <g
         id="Layer_x0020_1">
        <path
           id="path4497"
           d="m 0,0.085394 c 0.20101,0.24142 0.34474,0.30936 0.51712,0.46404 0.1062,-0.18314 0.2124,-0.22533 0.3186,-0.54944 0.008958,0.25564 -0.16822,0.50586 -0.20937,0.76151 -0.043805,0.27213 -0.00171,0.54968 -0.045515,0.82183 -0.03268,-0.16953 -0.065356,-0.33907 -0.098032,-0.5086 l -0.25488,0.52159 C 0.189936,1.344504 0.402503,1.060144 0.364513,0.808314 0.326529,0.556494 0.059463,0.348034 -7e-6,0.085374 Z m 0.48996,0.077394 c 0.073077,0 0.13234,0.059266 0.13234,0.13234 0,0.073077 -0.059266,0.13234 -0.13234,0.13234 -0.073077,0 -0.13234,-0.059266 -0.13234,-0.13234 0,-0.073077 0.059266,-0.13234 0.13234,-0.13234 z"
           class="fil0"
           inkscape:connector-curvature="0"
           style="fill:#000000" />
      </g>
    </g>
    <g
       id="g4599"
       inkscape:export-xdpi="96"
       inkscape:export-ydpi="96">
      <g
         transform="matrix(353.30825,0,0,353.30825,229.96772,352.5089)"
         id="g4527"
         style="clip-rule:evenodd;fill-rule:evenodd;stroke-width:0.00265349;image-rendering:optimizeQuality;shape-rendering:geometricPrecision;text-rendering:geometricPrecision">
        <path
           id="path4515"
           d="m 0,0.085394 c 0.20101,0.24142 0.34474,0.30936 0.51712,0.46404 0.1062,-0.18314 0.2124,-0.22533 0.3186,-0.54944 0.008958,0.25564 -0.16822,0.50586 -0.20937,0.76151 -0.043805,0.27213 -0.00171,0.54968 -0.045515,0.82183 -0.03268,-0.16953 -0.065356,-0.33907 -0.098032,-0.5086 l -0.25488,0.52159 C 0.189936,1.344504 0.402503,1.060144 0.364513,0.808314 0.326529,0.556494 0.059463,0.348034 -7e-6,0.085374 Z m 0.48996,0.077394 c 0.073077,0 0.13234,0.059266 0.13234,0.13234 0,0.073077 -0.059266,0.13234 -0.13234,0.13234 -0.073077,0 -0.13234,-0.059266 -0.13234,-0.13234 0,-0.073077 0.059266,-0.13234 0.13234,-0.13234 z"
           class="fil0"
           inkscape:connector-curvature="0"
           style="fill:#000000;stroke-width:0.00265349" />
      </g>
      <circle
         r="24.622469"
         cy="343.99274"
         cx="268.95312"
         id="path4530"
         style="opacity:1;fill:#00c000;fill-opacity:1;stroke:none;stroke-width:4.5;stroke-linecap:round;stroke-linejoin:miter;stroke-miterlimit:4;stroke-dasharray:none;stroke-dashoffset:0;stroke-opacity:1" />
      <circle
         r="24.622469"
         cy="275.80743"
         cx="357.97281"
         id="path4530-8"
         style="opacity:1;fill:#0000e0;fill-opacity:1;stroke:none;stroke-width:4.5;stroke-linecap:round;stroke-linejoin:miter;stroke-miterlimit:4;stroke-dasharray:none;stroke-dashoffset:0;stroke-opacity:1" />
      <circle
         r="24.622469"
         cy="319.37027"
         cx="498.13147"
         id="path4530-6"
         style="opacity:1;fill:#ff9200;fill-opacity:1;stroke:none;stroke-width:4.5;stroke-linecap:round;stroke-linejoin:miter;stroke-miterlimit:4;stroke-dasharray:none;stroke-dashoffset:0;stroke-opacity:1" />
    </g>
  </g>
</svg>
